<svg width="27" height="26" viewBox="0 0 27 26" fill="none" xmlns="http://www.w3.org/2000/svg">
<path d="M3.02497 18.5972C1.90979 14.1365 1.3522 11.9074 2.52327 10.4075C3.69304 8.90759 5.99359 8.90759 10.5908 8.90759H16.6086C21.2071 8.90759 23.5051 8.90759 24.6761 10.4075C25.8472 11.9061 25.2896 14.1378 24.1744 18.5972C23.4648 21.4346 23.1113 22.8526 22.0533 23.6792C20.9953 24.5046 19.5331 24.5046 16.6086 24.5046H10.5908C7.66637 24.5046 6.20415 24.5046 5.14616 23.6792C4.08816 22.8526 3.73333 21.4346 3.02497 18.5972Z" stroke="white" stroke-width="1.94962"/>
<path d="M23.3476 9.55742L22.4248 6.17158C22.0687 4.86534 21.8906 4.21286 21.5254 3.72026C21.1612 3.23086 20.6666 2.85385 20.0983 2.63237C19.5264 2.40881 18.8505 2.40881 17.4988 2.40881M3.85142 9.55742L4.77424 6.17158C5.13037 4.86534 5.30843 4.21286 5.67366 3.72026C6.03782 3.23086 6.53239 2.85385 7.10078 2.63237C7.67267 2.40881 8.34854 2.40881 9.70028 2.40881" stroke="white" stroke-width="1.94962"/>
<path d="M9.70131 2.40882C9.70131 2.0641 9.83825 1.73351 10.082 1.48976C10.3257 1.24601 10.6563 1.10907 11.0011 1.10907H16.2C16.5448 1.10907 16.8754 1.24601 17.1191 1.48976C17.3629 1.73351 17.4998 2.0641 17.4998 2.40882C17.4998 2.75353 17.3629 3.08413 17.1191 3.32788C16.8754 3.57163 16.5448 3.70856 16.2 3.70856H11.0011C10.6563 3.70856 10.3257 3.57163 10.082 3.32788C9.83825 3.08413 9.70131 2.75353 9.70131 2.40882Z" stroke="white" stroke-width="1.94962"/>
</svg>
